<svg version="1.1" id="Layer_1" xmlns="http://www.w3.org/2000/svg" xmlns:xlink="http://www.w3.org/1999/xlink" x="0px" y="0px"
	 width="100%" viewBox="0 0 880 752" enable-background="new 0 0 880 752" xml:space="preserve">
<path fill="#000000" opacity="1.000000" stroke="none" 
	d="
M1.000000,747.000000 
	C1.000000,500.305298 1.000000,253.610611 1.183777,6.824196 
	C1.575677,8.547338 1.932219,10.359342 1.967086,12.177514 
	C2.150656,21.749985 12.384588,28.499165 21.618168,25.112347 
	C24.896416,23.909904 28.148943,22.568962 31.517990,21.695278 
	C41.631790,19.072502 48.813774,13.482582 51.272854,2.595491 
	C50.325951,2.133883 49.162975,1.566941 48.000000,1.000000 
	C309.361359,1.000000 570.722717,1.000000 832.330933,1.268358 
	C830.526978,6.072491 832.880920,11.071530 831.045959,15.660381 
	C829.539368,19.428305 831.192749,22.380108 833.746704,25.103926 
	C835.854187,27.351593 838.391235,28.942123 841.181213,30.022175 
	C847.881409,32.615883 852.388672,37.586895 856.270813,43.329365 
	C857.386963,44.980415 858.579834,46.581444 859.779419,48.173824 
	C862.004700,51.127518 864.723633,51.898129 868.520935,51.300926 
	C872.708252,50.642387 876.415283,47.295231 881.000000,49.000000 
	C881.000000,283.604218 881.000000,518.208435 881.000000,753.000000 
	C594.971985,753.000000 308.943939,753.000000 22.447456,752.725952 
	C17.602318,742.774963 7.454638,740.137878 1.000000,747.000000 
M84.410828,429.141449 
	C87.716743,449.340454 91.270927,469.469208 97.275238,489.107544 
	C120.849449,566.211975 164.994308,629.012695 229.284546,677.380249 
	C279.523621,715.176575 336.113953,738.179810 398.525238,746.561218 
	C434.937866,751.451233 471.384644,751.057007 507.566101,745.177246 
	C556.122131,737.286499 601.362305,720.131897 643.018311,693.752869 
	C695.160217,660.733704 736.684875,617.492249 766.904419,563.737610 
	C798.639099,507.287933 814.442322,446.685730 814.023254,381.638916 
	C813.665710,326.146362 801.679382,273.545868 777.425232,223.919540 
	C745.275940,158.138840 697.482422,106.383499 634.503906,68.819214 
	C584.967651,39.272728 531.234680,22.889030 473.879242,18.570185 
	C444.573273,16.363455 415.377869,18.154446 386.314697,23.102173 
	C327.501709,33.114532 274.364075,56.191746 226.997498,92.190048 
	C167.820679,137.164047 126.011581,194.986176 101.735817,265.317230 
	C89.933441,299.510712 83.170212,334.671509 82.176537,370.892303 
	C81.650635,390.061829 81.982239,409.190552 84.410828,429.141449 
M822.020203,407.535309 
	C820.947021,414.441589 819.659424,421.323029 818.855225,428.260498 
	C817.859802,436.848572 821.129578,440.734497 829.578735,441.762421 
	C831.227051,441.962921 832.893433,442.154968 834.495728,442.567596 
	C839.530701,443.864197 842.900635,441.847687 845.087280,437.408386 
	C846.421631,434.699524 847.009705,431.759979 847.720276,428.842316 
	C849.694580,420.735809 848.292236,412.627411 848.135498,404.494965 
	C847.885071,391.502838 847.353516,378.543304 845.955322,365.625793 
	C845.660156,362.898682 845.630310,359.959442 842.726562,358.155731 
	C839.648254,359.926361 839.844910,363.015961 839.217346,365.635284 
	C837.553955,372.577637 837.457092,380.641235 832.049622,385.536926 
	C825.469727,391.494080 823.724792,398.846985 822.020203,407.535309 
z"/>
<path fill="#000000" opacity="1.000000" stroke="none" 
	d="
M392.113342,323.780396 
	C389.811005,340.007385 387.607025,355.804138 385.371338,371.596436 
	C382.825836,389.576965 378.914124,393.007904 360.764069,393.037079 
	C340.609711,393.069489 320.455200,393.039917 300.300781,393.013123 
	C297.637787,393.009583 294.962769,392.998383 292.314178,392.759399 
	C280.537537,391.696777 277.276276,387.467407 278.812836,375.644836 
	C283.029938,343.198242 287.524139,310.791412 292.503571,278.452087 
	C293.312561,273.197937 293.885345,267.907501 294.570282,262.634216 
	C295.105682,258.512115 294.706360,254.674210 291.558136,251.517517 
	C290.645721,250.602676 289.693665,249.569473 289.868896,247.109726 
	C296.346191,246.220169 303.067932,246.168915 309.656525,247.084732 
	C322.313812,248.844070 324.313568,251.578262 324.480377,264.322601 
	C324.563568,270.679169 324.251770,277.029694 323.097046,283.216583 
	C322.154388,288.267487 324.290466,288.855103 328.353027,288.821198 
	C342.343536,288.704346 356.335968,288.835327 370.326965,288.753296 
	C375.170959,288.724884 379.969330,289.059692 384.765350,289.645691 
	C391.524902,290.471649 394.415009,293.647675 394.504822,300.551422 
	C394.604767,308.234100 393.201904,315.772827 392.113342,323.780396 
M317.179962,324.545074 
	C315.605499,335.383972 314.002045,346.218811 312.471863,357.063965 
	C311.914825,361.011658 314.327637,361.886047 317.634857,361.873383 
	C328.617615,361.831421 339.600891,361.808502 350.583344,361.876984 
	C353.724579,361.896606 355.436218,360.927460 355.889465,357.469116 
	C357.290741,346.777405 359.003510,336.126770 360.568237,325.456177 
	C361.244873,320.841522 358.405548,319.566040 354.609009,319.539673 
	C343.797241,319.464722 332.984741,319.511566 322.172638,319.469818 
	C319.239441,319.458496 317.314117,320.462158 317.179962,324.545074 
z"/>
<path fill="#000000" opacity="1.000000" stroke="none" 
	d="
M232.819199,325.658905 
	C235.604630,325.525299 237.982483,326.030731 240.212662,325.100555 
	C241.506149,324.561096 242.523300,323.664154 242.338882,322.078705 
	C242.179153,320.705597 241.126785,320.048187 239.921783,319.930115 
	C237.443680,319.687256 234.939468,319.427734 232.460098,319.526978 
	C216.965469,320.147186 201.476913,319.786560 185.987030,319.400513 
	C177.921906,319.199524 175.091064,316.566284 173.491852,308.775482 
	C172.503815,303.962189 172.928070,299.158203 172.594528,294.359650 
	C172.286758,289.931793 174.192459,288.580170 178.442825,288.601776 
	C202.936127,288.726410 227.430435,288.667877 251.924377,288.646332 
	C256.921783,288.641907 261.883850,288.773743 266.846497,289.595673 
	C273.555267,290.706818 276.199341,293.339294 276.394714,300.143890 
	C276.663727,309.514618 274.707245,318.659515 273.374542,327.867432 
	C271.017822,344.150787 269.063293,360.501892 266.275909,376.710327 
	C264.189301,388.843750 260.435730,392.375366 248.280350,392.620148 
	C223.466660,393.119812 198.631912,393.088776 173.815262,392.690094 
	C162.854050,392.513977 159.853485,388.800537 160.742691,377.917542 
	C161.797745,365.004822 163.568359,352.143402 166.231430,339.454254 
	C168.366745,329.279785 172.738113,325.823547 183.359726,325.719025 
	C199.687378,325.558319 216.017654,325.665649 232.819199,325.658905 
M225.467468,356.409088 
	C222.137115,356.409607 218.806763,356.402588 215.476425,356.412384 
	C209.815338,356.429108 204.153397,356.407043 198.493744,356.508667 
	C196.752838,356.539917 195.077591,357.174347 194.795822,359.187866 
	C194.512619,361.211609 196.048416,361.805786 197.644073,361.808624 
	C209.796707,361.830475 221.949738,361.815430 234.101929,361.720306 
	C235.926147,361.706024 237.453262,360.668091 237.315186,358.645172 
	C237.186569,356.761017 235.516571,356.466980 233.942398,356.442322 
	C231.445206,356.403168 228.947189,356.417206 225.467468,356.409088 
z"/>
<path fill="#000000" opacity="1.000000" stroke="none" 
	d="
M523.730591,547.052124 
	C497.100037,547.068665 470.939575,547.114929 444.779266,547.071594 
	C427.828918,547.043518 424.707367,543.866089 426.678467,527.004944 
	C429.397430,503.746277 432.305359,480.495819 436.696808,457.475159 
	C438.654449,447.212677 442.022400,444.176361 452.432739,443.614288 
	C478.889679,442.185791 505.360474,442.239960 531.817017,443.690887 
	C539.006775,444.085205 542.830811,448.576538 542.023132,456.237488 
	C540.664917,469.119904 539.347717,482.041473 536.570618,494.714050 
	C533.860291,507.081848 530.046692,510.175446 517.318604,510.338135 
	C500.825165,510.548920 484.326538,510.330292 467.831909,510.485809 
	C464.993256,510.512543 460.136749,508.952240 460.211853,513.500977 
	C460.282135,517.760681 465.000641,515.752991 467.565002,515.796143 
	C481.057861,516.023254 494.556732,515.893372 508.053497,515.899170 
	C509.885773,515.899963 511.723816,515.886292 513.549377,516.016846 
	C526.279480,516.927673 528.997742,519.832520 529.398132,532.694763 
	C529.480835,535.351013 529.803040,538.000366 530.031860,540.651367 
	C530.398071,544.895935 528.969604,547.489929 523.730591,547.052124 
M466.639160,479.522797 
	C476.589325,479.566681 486.539459,479.617249 496.489655,479.649841 
	C498.977173,479.657990 501.468506,479.683289 503.951385,479.562836 
	C506.180267,479.454742 507.890808,478.425659 507.902405,475.977600 
	C507.915344,473.242523 505.676453,473.517303 503.910278,473.498413 
	C498.437164,473.439819 492.963013,473.466980 487.489288,473.479706 
	C481.684418,473.493195 475.870819,473.341827 470.077515,473.613525 
	C465.500336,473.828217 464.500153,475.467773 466.639160,479.522797 
z"/>
<path fill="#000000" opacity="1.000000" stroke="none" 
	d="
M317.724823,461.052063 
	C318.085205,458.991119 318.351379,457.346069 318.748230,455.733215 
	C320.782074,447.467255 323.919983,444.925323 332.370605,443.496735 
	C342.008820,441.867432 351.659790,443.013275 361.298981,442.849976 
	C375.458710,442.610046 389.624329,442.657043 403.787231,442.684937 
	C422.280304,442.721344 425.250031,445.770874 423.114899,464.135437 
	C421.099945,481.466217 418.431580,498.721649 415.993774,516.002197 
	C415.181061,521.763184 414.420532,527.546997 413.232025,533.235962 
	C411.355103,542.219788 407.821167,545.277222 398.822723,546.572510 
	C394.174927,547.241577 389.513367,547.047607 384.850861,547.000122 
	C381.668610,546.967712 380.406494,545.474304 380.874542,542.228760 
	C383.909637,521.183105 386.863281,500.125763 389.869781,479.075958 
	C390.134125,477.225250 391.748199,474.844208 388.716248,474.151947 
	C385.986206,473.528656 384.287262,475.401276 383.814667,477.987946 
	C382.919312,482.888824 382.170441,487.818787 381.465057,492.751617 
	C379.676727,505.257599 378.139465,517.802917 376.137024,530.273865 
	C374.210724,542.270447 369.732300,546.040405 357.459778,546.934265 
	C342.861511,547.997498 342.733307,547.980347 344.621185,533.803223 
	C347.055634,515.521606 349.726501,497.271606 352.277649,479.005463 
	C352.517334,477.289307 353.564636,474.998260 351.039642,474.369324 
	C348.208191,473.664124 347.268188,475.966553 346.911621,478.222931 
	C345.667206,486.098114 344.568573,493.996307 343.346832,501.875214 
	C341.691711,512.548462 340.268646,523.269897 338.190582,533.861572 
	C336.519318,542.380005 332.970947,545.297424 324.346710,546.533630 
	C316.558899,547.649841 308.712463,546.995667 300.889740,546.974792 
	C300.036591,546.972534 299.260956,546.659180 298.825592,545.817322 
	C298.864685,545.499390 298.791229,545.012512 298.971344,544.885620 
	C307.402313,538.944885 308.307770,529.934998 309.454102,520.701782 
	C311.909302,500.926025 314.912262,481.218353 317.724823,461.052063 
z"/>
<path fill="#000000" opacity="1.000000" stroke="none" 
	d="
M499.746948,385.429382 
	C497.376465,389.784882 493.733276,391.646454 489.431915,392.209137 
	C485.808960,392.683075 482.134857,392.966736 478.482147,392.979706 
	C458.158752,393.051971 437.834991,393.020538 417.511353,393.010468 
	C415.346680,393.009399 413.176331,393.000000 411.018341,392.852600 
	C398.798065,392.018097 395.193268,388.028687 396.804901,375.948883 
	C399.945404,352.409149 403.316956,328.898163 406.841827,305.412659 
	C408.562439,293.948425 412.337036,290.273926 423.680298,289.612518 
	C449.958832,288.080109 476.262726,288.299591 502.542358,289.752441 
	C509.186096,290.119690 511.882538,293.115784 512.507874,299.945221 
	C513.182922,307.318329 511.420746,314.490082 510.372131,321.715332 
	C507.722626,339.971008 505.132202,358.235596 502.376709,376.475250 
	C501.934357,379.403381 500.763824,382.221466 499.746948,385.429382 
M445.506592,361.882355 
	C453.152191,361.871368 460.797943,361.826416 468.443268,361.865875 
	C471.566040,361.881989 473.436340,360.694458 473.898254,357.399780 
	C475.416992,346.567871 477.066437,335.754303 478.602142,324.924683 
	C479.023315,321.954895 477.816833,319.960876 474.599335,319.945129 
	C463.302948,319.889832 452.005493,319.861969 440.709808,319.969147 
	C437.504578,319.999512 435.582733,321.717743 435.108002,325.135315 
	C433.626068,335.803986 431.965485,346.447693 430.429352,357.109009 
	C429.988922,360.165802 431.268829,361.883514 434.538452,361.855804 
	C437.862122,361.827637 441.186371,361.870911 445.506592,361.882355 
z"/>
<path fill="#000000" opacity="1.000000" stroke="none" 
	d="
M737.220032,362.730682 
	C738.027405,371.345947 737.095032,379.517242 732.772217,386.868774 
	C730.587585,390.584015 726.587341,391.945709 722.505371,392.221466 
	C704.877808,393.412292 687.227539,393.468018 669.606506,392.229736 
	C662.552795,391.734070 659.460083,388.163788 659.682190,381.017731 
	C660.028931,369.863678 662.842041,359.000732 664.146912,347.947021 
	C665.041626,340.367462 666.381836,332.840576 667.517517,325.289337 
	C668.095703,321.444672 666.979675,319.223541 662.543945,319.358429 
	C656.387756,319.545593 650.218750,319.289917 644.060364,319.437622 
	C640.487427,319.523315 638.690613,318.550018 639.513733,314.556213 
	C640.216614,311.145294 640.337524,307.613861 641.049866,304.205566 
	C643.402466,292.950439 647.461060,289.612793 659.648438,288.772125 
	C662.468384,288.577606 665.309021,288.619537 668.138977,288.650787 
	C670.944031,288.681793 672.415833,287.417694 672.821838,284.605072 
	C674.007385,276.390900 675.182617,268.172180 676.584900,259.993469 
	C677.518921,254.545395 673.965698,251.438873 670.698975,248.393646 
	C671.073669,247.696625 671.204590,247.185760 671.376587,247.171524 
	C680.316956,246.431122 689.302124,245.868042 698.167175,247.475021 
	C704.953491,248.705200 707.111328,251.543106 707.210632,258.511993 
	C707.312683,265.677277 705.966187,272.738281 704.848145,279.780914 
	C703.591187,287.698425 704.172974,288.660400 711.919861,288.668549 
	C722.578491,288.679749 733.237732,288.736847 743.895447,288.637482 
	C747.465088,288.604218 749.290100,289.614410 748.447693,293.589752 
	C747.519348,297.970154 747.070190,302.458832 746.017151,306.804596 
	C743.939209,315.380280 739.333191,319.081238 730.356506,319.303345 
	C722.034363,319.509277 713.698669,319.542938 705.378784,319.306915 
	C701.302246,319.191284 699.141785,320.558044 698.605469,324.677429 
	C697.211365,335.384674 695.848877,346.100433 694.152527,356.761719 
	C693.471985,361.038696 695.160522,361.949127 698.937378,361.899658 
	C709.261108,361.764435 719.587891,361.848083 729.913330,361.879974 
	C732.233948,361.887146 734.586548,361.680084 737.220032,362.730682 
z"/>
<path fill="#000000" opacity="1.000000" stroke="none" 
	d="
M517.502563,389.395935 
	C512.454895,382.442841 515.164551,375.248047 516.054871,368.328033 
	C518.958069,345.763977 522.113953,323.231384 525.343628,300.711212 
	C526.033508,295.900635 522.224121,293.749817 520.088928,290.833984 
	C520.404175,290.185089 520.506714,289.675201 520.686890,289.646088 
	C530.958862,287.985840 541.213501,288.154846 551.248047,290.919434 
	C555.347961,292.049011 556.255127,295.858154 556.326172,299.778503 
	C556.490112,308.831726 554.181091,317.580505 553.041809,326.470612 
	C551.733582,336.679108 550.095642,346.845734 548.565979,357.025269 
	C548.089905,360.193542 549.348450,361.822418 552.575378,361.825409 
	C564.232239,361.836151 575.889465,361.779358 587.545654,361.866943 
	C591.652039,361.897797 591.903198,358.930450 592.304871,356.147644 
	C594.131592,343.494476 595.874390,330.829193 597.641541,318.167480 
	C598.743286,310.273163 599.948853,302.390930 600.885315,294.476990 
	C601.390625,290.206299 603.329529,288.307159 607.723022,288.768951 
	C612.350342,289.255310 617.037659,289.223602 621.645813,289.824585 
	C627.451843,290.581787 630.017334,293.434143 630.484619,299.448730 
	C631.107910,307.472351 629.356506,315.312683 628.264648,323.194214 
	C626.006958,339.491180 623.709534,355.782654 621.404724,372.073059 
	C618.930420,389.561951 615.025208,393.006744 597.523010,393.025513 
	C575.707458,393.048889 553.891663,393.066559 532.076538,392.970856 
	C527.118591,392.949097 522.000793,393.145691 517.502563,389.395935 
z"/>
</svg>